<svg width="24" height="24" viewBox="0 0 24 24" fill="none" xmlns="http://www.w3.org/2000/svg">
<path fill-rule="evenodd" clip-rule="evenodd" d="M10.875 3.37498C11.0821 3.37498 11.25 3.54286 11.25 3.74998V10.875C11.25 11.0821 11.0821 11.25 10.875 11.25H3.75C3.54288 11.25 3.375 11.0821 3.375 10.875V3.74998C3.375 3.54286 3.54288 3.37498 3.75 3.37498H10.875ZM9.65625 4.96873H4.96875V9.65623H9.65625V4.96873ZM21.2187 7.02387C21.3652 7.17031 21.3652 7.40775 21.2187 7.55419L16.9761 11.7968C16.8296 11.9433 16.5922 11.9433 16.4458 11.7968L12.2031 7.55419C12.0567 7.40775 12.0567 7.17031 12.2031 7.02387L16.4458 2.78121C16.5922 2.63478 16.8296 2.63478 16.9761 2.78121L21.2187 7.02387ZM19.23 7.28902L16.7109 4.76998L14.1919 7.28904L16.7109 9.80811L19.23 7.28902ZM10.875 12.75C11.0821 12.75 11.25 12.9179 11.25 13.125V20.25C11.25 20.4571 11.0821 20.625 10.875 20.625H3.75C3.54288 20.625 3.375 20.4571 3.375 20.25V13.125C3.375 12.9179 3.54288 12.75 3.75 12.75H10.875ZM9.65625 14.3437H4.96875V19.0312H9.65625V14.3437ZM20.25 12.75C20.4571 12.75 20.625 12.9179 20.625 13.125V20.25C20.625 20.4571 20.4571 20.625 20.25 20.625H13.125C12.9179 20.625 12.75 20.4571 12.75 20.25V13.125C12.75 12.9179 12.9179 12.75 13.125 12.75H20.25ZM19.0312 14.3437H14.3438V19.0312H19.0312V14.3437Z" fill="#4862F5"/>
</svg>
