<svg width="24" height="24" viewBox="0 0 24 24" fill="none" xmlns="http://www.w3.org/2000/svg">
<g clip-path="url(#clip0_17_56)">
<path d="M19.0057 5.99579H17.0057C17.0057 3.19579 14.8057 0.995789 12.0057 0.995789C9.20568 0.995789 7.00568 3.19579 7.00568 5.99579H5.00568C3.90568 5.99579 3.00568 6.89579 3.00568 7.99579V19.9958C3.00568 21.0958 3.90568 21.9958 5.00568 21.9958H19.0057C20.1057 21.9958 21.0057 21.0958 21.0057 19.9958V7.99579C21.0057 6.89579 20.1057 5.99579 19.0057 5.99579ZM12.0057 2.99579C13.7057 2.99579 15.0057 4.29579 15.0057 5.99579H9.00568C9.00568 4.29579 10.3057 2.99579 12.0057 2.99579ZM19.0057 19.9958H5.00568V7.99579H19.0057V19.9958ZM12.0057 11.9958C10.3057 11.9958 9.00568 10.6958 9.00568 8.99579H7.00568C7.00568 11.7958 9.20568 13.9958 12.0057 13.9958C14.8057 13.9958 17.0057 11.7958 17.0057 8.99579H15.0057C15.0057 10.6958 13.7057 11.9958 12.0057 11.9958Z" fill="black"/>
</g>
<defs>
<clipPath id="clip0_17_56">
<rect width="24" height="24" fill="white"/>
</clipPath>
</defs>
</svg>
