<svg width="247" height="247" viewBox="0 0 247 247" fill="none" xmlns="http://www.w3.org/2000/svg">
<ellipse opacity="0.1" cx="123.123" cy="238.859" rx="123.123" ry="7.38735" fill="#2B2A7F"/>
<path fill-rule="evenodd" clip-rule="evenodd" d="M48.6238 40.4366C46.9732 37.2565 43.0571 36.0167 39.877 37.6673C36.6969 39.318 35.457 43.2341 37.1077 46.4142L43.2562 58.2596C44.9068 61.4397 48.8229 62.6795 52.003 61.0289C55.1831 59.3782 56.423 55.4621 54.7723 52.282L48.6238 40.4366ZM42.1459 42.0385C42.9119 41.6409 43.8551 41.9395 44.2527 42.7055L50.4012 54.5509C50.7988 55.3169 50.5001 56.2601 49.7341 56.6577C48.9682 57.0553 48.0249 56.7567 47.6273 55.9907L41.4788 44.1453C41.0813 43.3793 41.3799 42.4361 42.1459 42.0385ZM64.9162 68.7513C56.7564 68.7513 50.1415 75.3661 50.1415 83.526V187.204C50.1415 195.363 56.7564 201.978 64.9162 201.978H163.414C171.574 201.978 178.189 195.363 178.189 187.204V171.213C167.885 165.252 160.952 154.111 160.952 141.35C160.952 128.59 167.885 117.449 178.189 111.488V83.526C178.189 75.3661 171.574 68.7513 163.414 68.7513H153.31V72.4866C153.31 79.2864 147.798 84.7988 140.998 84.7988H92.2581C85.4582 84.7988 79.9459 79.2864 79.9459 72.4866V68.7513H64.9162ZM183.114 109.14V83.526C183.114 72.6462 174.294 63.8264 163.414 63.8264H131.047C129.375 57.4255 123.553 52.7021 116.628 52.7021C109.703 52.7021 103.881 57.4255 102.209 63.8264H64.9162C54.0365 63.8264 45.2166 72.6462 45.2166 83.526V187.204C45.2166 198.083 54.0365 206.903 64.9162 206.903H163.414C174.294 206.903 183.114 198.083 183.114 187.204V173.561C186.938 175.023 191.088 175.825 195.426 175.825C214.466 175.825 229.9 160.39 229.9 141.35C229.9 122.311 214.466 106.876 195.426 106.876C191.088 106.876 186.938 107.677 183.114 109.14ZM17.9238 59.7887C19.5263 56.584 23.4233 55.2853 26.6279 56.8878L38.5646 62.857C41.7693 64.4595 43.068 68.3564 41.4655 71.5611C39.863 74.7657 35.966 76.0644 32.7614 74.4619L20.8246 68.4928C17.62 66.8903 16.3213 62.9933 17.9238 59.7887ZM24.4252 61.2927C23.6533 60.9067 22.7146 61.2195 22.3286 61.9914C21.9426 62.7633 22.2555 63.7019 23.0274 64.0879L34.9641 70.0571C35.736 70.4431 36.6747 70.1302 37.0607 69.3583C37.4466 68.5865 37.1338 67.6478 36.3619 67.2618L24.4252 61.2927ZM102.702 118.296C102.702 114.896 105.458 112.14 108.858 112.14H150.72C154.12 112.14 156.876 114.896 156.876 118.296C156.876 121.696 154.12 124.452 150.72 124.452H108.858C105.458 124.452 102.702 121.696 102.702 118.296ZM108.858 140.968C105.458 140.968 102.702 143.724 102.702 147.124C102.702 150.524 105.458 153.28 108.858 153.28H150.72C154.12 153.28 156.876 150.524 156.876 147.124C156.876 143.724 154.12 140.968 150.72 140.968H108.858ZM107.627 147.124C107.627 146.444 108.178 145.893 108.858 145.893H150.72C151.4 145.893 151.951 146.444 151.951 147.124C151.951 147.804 151.4 148.355 150.72 148.355H108.858C108.178 148.355 107.627 147.804 107.627 147.124ZM102.702 177.267C102.702 173.867 105.458 171.111 108.858 171.111H150.72C154.12 171.111 156.876 173.867 156.876 177.267C156.876 180.667 154.12 183.424 150.72 183.424H108.858C105.458 183.424 102.702 180.667 102.702 177.267ZM108.858 176.036C108.178 176.036 107.627 176.587 107.627 177.267C107.627 177.947 108.178 178.499 108.858 178.499H150.72C151.4 178.499 151.951 177.947 151.951 177.267C151.951 176.587 151.4 176.036 150.72 176.036H108.858ZM75.1893 116.089C75.1893 112.009 78.4967 108.701 82.5766 108.701H86.4826C90.5625 108.701 93.8699 112.009 93.8699 116.089V119.994C93.8699 124.074 90.5625 127.382 86.4826 127.382H82.5766C78.4967 127.382 75.1893 124.074 75.1893 119.994V116.089ZM82.5766 137.529C78.4967 137.529 75.1893 140.837 75.1893 144.917V148.822C75.1893 152.902 78.4967 156.21 82.5766 156.21H86.4826C90.5625 156.21 93.8699 152.902 93.8699 148.822V144.917C93.8699 140.837 90.5625 137.529 86.4826 137.529H82.5766ZM80.1142 144.917C80.1142 143.557 81.2167 142.454 82.5766 142.454H86.4826C87.8426 142.454 88.945 143.557 88.945 144.917V148.822C88.945 150.182 87.8426 151.285 86.4826 151.285H82.5766C81.2167 151.285 80.1142 150.182 80.1142 148.822V144.917ZM75.1893 175.06C75.1893 170.98 78.4967 167.673 82.5766 167.673H86.4826C90.5625 167.673 93.8699 170.98 93.8699 175.06V178.966C93.8699 183.046 90.5625 186.353 86.4826 186.353H82.5766C78.4967 186.353 75.1893 183.046 75.1893 178.966V175.06ZM82.5766 172.597C81.2167 172.597 80.1142 173.7 80.1142 175.06V178.966C80.1142 180.326 81.2167 181.428 82.5766 181.428H86.4826C87.8426 181.428 88.945 180.326 88.945 178.966V175.06C88.945 173.7 87.8426 172.597 86.4826 172.597H82.5766ZM165.877 141.35C165.877 125.031 179.106 111.801 195.426 111.801C211.746 111.801 224.976 125.031 224.976 141.35C224.976 157.67 211.746 170.9 195.426 170.9C179.106 170.9 165.877 157.67 165.877 141.35ZM189.27 125.344C189.27 121.944 192.026 119.188 195.426 119.188C198.826 119.188 201.582 121.944 201.582 125.344V140.119C201.582 143.519 198.826 146.275 195.426 146.275C192.026 146.275 189.27 143.519 189.27 140.119V125.344ZM195.426 124.113C194.746 124.113 194.195 124.664 194.195 125.344V140.119C194.195 140.799 194.746 141.35 195.426 141.35C196.106 141.35 196.657 140.799 196.657 140.119V125.344C196.657 124.664 196.106 124.113 195.426 124.113ZM195.426 163.512C192.026 163.512 189.27 160.756 189.27 157.356C189.27 153.956 192.026 151.2 195.426 151.2C198.826 151.2 201.582 153.956 201.582 157.356C201.582 160.756 198.826 163.512 195.426 163.512ZM194.195 157.356C194.195 158.036 194.746 158.587 195.426 158.587C196.106 158.587 196.657 158.036 196.657 157.356C196.657 156.676 196.106 156.125 195.426 156.125C194.746 156.125 194.195 156.676 194.195 157.356Z" fill="#C2C2C2"/>
</svg>
